<?xml version="1.0" standalone="no"?>
<!DOCTYPE svg PUBLIC "-//W3C//DTD SVG 20010904//EN"
 "http://www.w3.org/TR/2001/REC-SVG-20010904/DTD/svg10.dtd">
<svg version="1.0" xmlns="http://www.w3.org/2000/svg"
 width="259.000000pt" height="79.000000pt" viewBox="0 0 259.000000 79.000000"
 preserveAspectRatio="xMidYMid meet">

<g transform="translate(0.000000,79.000000) scale(0.100000,-0.100000)"
fill="#000000" stroke="none">
<path d="M634 750 c-122 -40 -202 -146 -223 -294 -11 -77 1 -176 30 -243 27
-62 100 -137 162 -163 185 -80 386 7 452 195 52 148 17 332 -82 431 -82 82
-222 113 -339 74z m227 -47 c89 -40 150 -133 171 -257 23 -140 -41 -287 -152
-350 -50 -28 -63 -31 -140 -31 -102 0 -146 19 -209 91 -127 145 -98 424 54
525 78 52 189 60 276 22z"/>
<path d="M50 395 l0 -355 25 0 25 0 0 355 0 355 -25 0 -25 0 0 -355z"/>
<path d="M1260 730 c0 -19 6 -20 125 -20 l125 0 0 -335 0 -335 25 0 25 0 0
335 0 334 123 3 c100 3 122 6 122 18 0 13 -38 15 -272 18 -268 2 -273 2 -273
-18z"/>
<path d="M2055 408 c-75 -189 -139 -349 -142 -355 -3 -9 4 -13 20 -13 20 0 28
7 36 33 6 17 65 167 130 332 114 287 120 299 131 270 29 -75 113 -295 130
-340 41 -111 110 -289 114 -293 2 -2 13 -2 24 0 18 3 11 24 -75 243 -52 132
-113 290 -137 350 -38 96 -46 110 -68 113 -25 3 -31 -9 -163 -340z"/>
</g>
</svg>
