<?xml version="1.0" standalone="no"?>
<!DOCTYPE svg PUBLIC "-//W3C//DTD SVG 20010904//EN"
 "http://www.w3.org/TR/2001/REC-SVG-20010904/DTD/svg10.dtd">
<svg version="1.0" xmlns="http://www.w3.org/2000/svg"
 width="2000.000000pt" height="2000.000000pt" viewBox="0 0 2000.000000 2000.000000"
 preserveAspectRatio="xMidYMid meet">

<g transform="translate(0.000000,2000.000000) scale(0.100000,-0.100000)"
fill="#000000" stroke="none">
<path d="M9685 19774 c-213 -9 -479 -27 -660 -45 -2571 -253 -4937 -1522
-6591 -3535 -1218 -1481 -1978 -3317 -2163 -5224 -36 -371 -45 -560 -45 -970
0 -410 9 -599 45 -970 185 -1907 945 -3743 2163 -5224 390 -474 899 -984 1362
-1364 1386 -1135 3033 -1864 4784 -2116 510 -74 880 -100 1420 -100 545 0 907
26 1420 100 1751 252 3398 981 4784 2116 346 284 861 780 1129 1089 1302 1497
2089 3218 2356 5149 59 428 85 828 85 1320 0 410 -9 599 -45 970 -215 2207
-1185 4283 -2744 5869 -503 512 -1003 926 -1575 1306 -1427 948 -3016 1487
-4745 1610 -201 14 -812 26 -980 19z m960 -513 c263 -21 456 -43 690 -76 1662
-237 3231 -929 4545 -2004 448 -367 934 -853 1305 -1306 1068 -1304 1761
-2876 1999 -4538 73 -509 91 -763 91 -1337 0 -574 -18 -828 -91 -1337 -239
-1666 -930 -3233 -2003 -4543 -367 -448 -853 -934 -1301 -1301 -1310 -1073
-2884 -1767 -4545 -2004 -510 -73 -763 -90 -1335 -90 -572 0 -825 17 -1335 90
-1661 237 -3235 931 -4545 2004 -448 367 -934 853 -1301 1301 -1077 1315
-1775 2903 -2008 4570 -69 495 -85 747 -85 1310 0 573 16 825 89 1335 215
1508 808 2948 1723 4185 436 590 1013 1195 1582 1661 1499 1226 3340 1955
5250 2079 91 6 190 12 220 14 111 7 929 -3 1055 -13z"/>
<path d="M7472 15751 l3 -160 280 -5 c365 -6 504 -29 730 -118 272 -107 449
-247 536 -423 61 -125 87 -251 116 -570 17 -190 18 -420 18 -4450 0 -4039 -1
-4259 -18 -4440 -32 -325 -86 -567 -157 -689 -98 -172 -340 -341 -585 -411
-173 -50 -248 -57 -597 -62 l-328 -5 0 -164 0 -164 2524 0 c2138 0 2525 2
2535 14 8 9 11 61 9 162 l-3 149 -315 6 c-318 6 -392 13 -536 54 -167 47 -331
121 -455 203 -86 58 -203 176 -244 246 -85 146 -121 353 -145 835 -14 280 -14
8209 0 8444 26 444 70 685 156 864 69 144 257 310 449 395 198 89 373 116 788
125 l307 6 -2 156 -3 156 -2533 3 -2532 2 2 -159z"/>
</g>
</svg>
