<svg version="1.0" xmlns="http://www.w3.org/2000/svg"
    viewBox="0 0 646.000000 117.000000"
 preserveAspectRatio="xMidYMid meet">

<g transform="translate(0.000000,117.000000) scale(0.100000,-0.100000)"
fill="#000000" stroke="none">
<path d="M1401 1134 c-195 -52 -348 -202 -407 -399 -24 -80 -24 -229 0 -310
58 -194 217 -349 412 -399 293 -76 602 104 690 399 24 81 24 229 0 310 -58
196 -223 354 -417 400 -80 18 -207 18 -278 -1z m324 -43 c164 -58 298 -204
346 -376 18 -64 18 -206 0 -270 -48 -172 -180 -316 -346 -377 -87 -32 -273
-32 -360 0 -163 60 -290 196 -343 366 -22 72 -21 226 2 296 63 191 201 324
386 375 78 21 236 15 315 -14z"/>
<path d="M1400 921 c0 -5 15 -13 33 -16 59 -13 57 -2 57 -325 0 -324 2 -314
-58 -326 -71 -14 -24 -24 113 -24 85 0 145 4 145 10 0 5 -16 12 -35 16 -60 11
-60 9 -60 324 0 316 0 314 61 326 74 14 27 24 -111 24 -82 0 -145 -4 -145 -9z"/>
<path d="M3262 1001 c-75 -28 -139 -77 -183 -141 -53 -77 -71 -138 -77 -256
-7 -165 23 -257 114 -351 192 -196 518 -140 635 111 44 94 57 202 37 304 -22
111 -57 182 -120 246 -71 70 -141 98 -263 103 -71 3 -101 -1 -143 -16z m260
-51 c78 -29 153 -110 191 -207 81 -206 -2 -449 -180 -530 -49 -23 -64 -25
-156 -21 -90 3 -108 7 -150 31 -168 99 -228 366 -126 568 35 70 115 144 178
163 69 22 180 20 243 -4z"/>
<path d="M2570 580 l0 -420 30 0 30 0 0 420 0 420 -30 0 -30 0 0 -420z"/>
<path d="M4015 990 c-16 -25 18 -34 155 -38 l140 -5 0 -393 0 -394 30 0 30 0
0 394 0 393 61 7 c34 3 94 6 133 6 70 0 108 11 92 27 -13 14 -633 17 -641 3z"/>
<path d="M5132 988 c-21 -28 -55 -107 -192 -448 -78 -195 -145 -361 -148 -368
-7 -19 49 -11 59 8 5 8 65 157 133 330 140 355 163 410 175 410 5 0 57 -127
116 -282 184 -482 180 -473 205 -476 21 -3 22 -1 17 27 -6 27 -185 495 -269
701 -42 103 -69 131 -96 98z"/>
</g>
</svg>